<svg width="14" height="14" viewBox="0 0 14 14" fill="none" xmlns="http://www.w3.org/2000/svg">
<path fill-rule="evenodd" clip-rule="evenodd" d="M7.66667 1.57906C7.66667 0.842681 8.26362 0.245728 9 0.245728H12.3333C13.0697 0.245728 13.6667 0.842681 13.6667 1.57906V4.91239C13.6667 5.64877 13.0697 6.24573 12.3333 6.24573H9C8.26362 6.24573 7.66667 5.64877 7.66667 4.91239V1.57906ZM12.3333 1.57906H9V4.91239H12.3333V1.57906Z" fill="#4C4C4C"/>
<path fill-rule="evenodd" clip-rule="evenodd" d="M0.72386 3.30292C0.973908 3.05287 1.31305 2.91239 1.66667 2.91239H5C5.35363 2.91239 5.69276 3.05287 5.94281 3.30292C6.19286 3.55297 6.33334 3.89211 6.33334 4.24573V7.57906H9.66667C10.0203 7.57906 10.3594 7.71954 10.6095 7.96959C10.8595 8.21964 11 8.55877 11 8.91239V12.2457C11 12.5993 10.8595 12.9385 10.6095 13.1885C10.3594 13.4386 10.0203 13.5791 9.66667 13.5791H1.66667C1.31305 13.5791 0.97391 13.4386 0.72386 13.1885C0.473811 12.9385 0.333336 12.5993 0.333336 12.2457V4.24573C0.333336 3.89211 0.473812 3.55297 0.72386 3.30292ZM1.66667 8.91239V12.2457H5V8.91239H1.66667ZM5 7.57906H1.66667V4.24573H5V7.57906ZM6.33334 8.91239V12.2457H9.66667V8.91239H6.33334Z" fill="#4C4C4C"/>
</svg>
