<svg width="16" height="15" viewBox="0 0 16 15" fill="none" xmlns="http://www.w3.org/2000/svg">
<path fill-rule="evenodd" clip-rule="evenodd" d="M2.86192 4.2093C3.12227 3.94895 3.54438 3.94895 3.80473 4.2093L7.80473 8.2093C8.06508 8.46965 8.06508 8.89176 7.80473 9.15211C7.54438 9.41246 7.12227 9.41246 6.86192 9.15211L2.86192 5.15211C2.60157 4.89176 2.60157 4.46965 2.86192 4.2093Z" fill="#4c4c4c"/>
<path fill-rule="evenodd" clip-rule="evenodd" d="M8.36979 2.126C8.67614 2.33024 8.75893 2.74415 8.55469 3.0505L7.22136 5.0505C7.197 5.08703 7.1691 5.12107 7.13806 5.15211L3.13806 9.15211C2.87771 9.41246 2.4556 9.41246 2.19525 9.15211C1.9349 8.89176 1.9349 8.46965 2.19525 8.2093L6.14857 4.25598L7.44529 2.3109C7.64952 2.00455 8.06344 1.92177 8.36979 2.126Z" fill="#4c4c4c"/>
<path fill-rule="evenodd" clip-rule="evenodd" d="M0.666656 2.6807C0.666656 2.31252 0.965133 2.01404 1.33332 2.01404H9.33332C9.70151 2.01404 9.99999 2.31252 9.99999 2.6807C9.99999 3.04889 9.70151 3.34737 9.33332 3.34737H1.33332C0.965133 3.34737 0.666656 3.04889 0.666656 2.6807Z" fill="#4c4c4c"/>
<path fill-rule="evenodd" clip-rule="evenodd" d="M3.99999 0.680705C3.99999 0.312515 4.29847 0.0140381 4.66666 0.0140381H5.33332C5.70151 0.0140381 5.99999 0.312515 5.99999 0.680705C5.99999 1.04889 5.70151 1.34737 5.33332 1.34737H4.66666C4.29847 1.34737 3.99999 1.04889 3.99999 0.680705Z" fill="#4c4c4c"/>
<path fill-rule="evenodd" clip-rule="evenodd" d="M11.3333 6.68071C11.5858 6.68071 11.8167 6.82337 11.9296 7.04923L15.2629 13.7159C15.4276 14.0452 15.2941 14.4457 14.9648 14.6103C14.6355 14.775 14.235 14.6415 14.0704 14.3122L11.3333 8.83808L8.59627 14.3122C8.43162 14.6415 8.03117 14.775 7.70185 14.6103C7.37253 14.4457 7.23905 14.0452 7.40371 13.7159L10.737 7.04923C10.85 6.82337 11.0808 6.68071 11.3333 6.68071Z" fill="#4c4c4c"/>
<path fill-rule="evenodd" clip-rule="evenodd" d="M8.66666 11.3474C8.66666 10.9792 8.96513 10.6807 9.33332 10.6807H13.3333C13.7015 10.6807 14 10.9792 14 11.3474C14 11.7156 13.7015 12.014 13.3333 12.014H9.33332C8.96513 12.014 8.66666 11.7156 8.66666 11.3474Z" fill="#4c4c4c"/>
</svg>
