<svg width="22" height="22" viewBox="0 0 22 22" fill="none" xmlns="http://www.w3.org/2000/svg">
<path fill-rule="evenodd" clip-rule="evenodd" d="M11 0C11.5522 0 12 0.447715 12 1V3C12 3.55228 11.5522 4 11 4C10.4477 4 9.99996 3.55228 9.99996 3V1C9.99996 0.447715 10.4477 0 11 0Z" fill="black"/>
<path fill-rule="evenodd" clip-rule="evenodd" d="M3.22285 3.22289C3.61338 2.83237 4.24654 2.83237 4.63707 3.22289L6.04707 4.63289C6.43759 5.02342 6.43759 5.65658 6.04707 6.04711C5.65654 6.43763 5.02338 6.43763 4.63285 6.04711L3.22285 4.63711C2.83233 4.24658 2.83233 3.61342 3.22285 3.22289Z" fill="black"/>
<path fill-rule="evenodd" clip-rule="evenodd" d="M18 11C18 10.4477 18.4477 10 19 10H21C21.5522 10 22 10.4477 22 11C22 11.5523 21.5522 12 21 12H19C18.4477 12 18 11.5523 18 11Z" fill="black"/>
<path fill-rule="evenodd" clip-rule="evenodd" d="M18.7771 3.22289C19.1676 3.61342 19.1676 4.24658 18.7771 4.63711L17.3671 6.04711C16.9765 6.43763 16.3434 6.43763 15.9529 6.04711C15.5623 5.65658 15.5623 5.02342 15.9529 4.63289L17.3629 3.22289C17.7534 2.83237 18.3865 2.83237 18.7771 3.22289Z" fill="black"/>
<path fill-rule="evenodd" clip-rule="evenodd" d="M8.52736 6.65288C9.34823 6.18573 10.2846 5.96064 11.2281 6.00366C12.1716 6.04669 13.0837 6.35606 13.8586 6.89598C14.6336 7.4359 15.2398 8.18427 15.607 9.05444C15.9742 9.92462 16.0874 10.881 15.9336 11.8129C15.8436 12.3578 15.329 12.7266 14.7841 12.6366C14.2392 12.5467 13.8704 12.032 13.9603 11.4871C14.0526 10.928 13.9847 10.3542 13.7643 9.83205C13.544 9.30995 13.1803 8.86093 12.7153 8.53698C12.2504 8.21303 11.7031 8.0274 11.137 8.00159C10.5709 7.97577 10.0091 8.11083 9.51656 8.39112C9.03656 8.66428 8.426 8.49661 8.15284 8.01661C7.87968 7.5366 8.04735 6.92604 8.52736 6.65288Z" fill="black"/>
<path fill-rule="evenodd" clip-rule="evenodd" d="M6.95852 12.1163C6.2237 11.9351 5.45256 11.9661 4.73466 12.2057C4.01676 12.4453 3.38157 12.8837 2.90285 13.4699C2.42413 14.056 2.12154 14.766 2.03021 15.5173C1.93888 16.2686 2.06257 17.0304 2.3869 17.7142C2.71124 18.398 3.22292 18.9758 3.8625 19.3804C4.50203 19.7849 5.24321 19.9998 5.99996 20C5.99989 20 6.00003 20 5.99996 20H12C12.5304 20 13.0391 19.7893 13.4142 19.4142C13.7892 19.0391 14 18.5304 14 18C14 17.4696 13.7892 16.9609 13.4142 16.5858C13.0391 16.2107 12.5304 16 12 16H10.9C10.4248 16 10.0152 15.6656 9.92016 15.2C9.7688 14.4585 9.41017 13.7751 8.88592 13.2292C8.36168 12.6834 7.69334 12.2975 6.95852 12.1163ZM4.1015 10.3086C5.17835 9.94921 6.33506 9.90269 7.43729 10.1744C8.53951 10.4462 9.54203 11.0251 10.3284 11.8439C10.9221 12.4621 11.3742 13.1979 11.6578 14H12C13.0608 14 14.0782 14.4214 14.8284 15.1716C15.5785 15.9217 16 16.9391 16 18C16 19.0609 15.5785 20.0783 14.8284 20.8284C14.0782 21.5786 13.0608 22 12 22H5.99996C4.86472 21.9998 3.75264 21.6775 2.79326 21.0706C1.83388 20.4636 1.06637 19.597 0.579867 18.5713C0.0933635 17.5456 -0.0921662 16.4029 0.0448262 15.276C0.181819 14.149 0.635711 13.0841 1.35379 12.2048C2.07186 11.3255 3.02466 10.668 4.1015 10.3086Z" fill="black"/>
</svg>
