<svg width="36" height="37" viewBox="0 0 36 37" fill="none" xmlns="http://www.w3.org/2000/svg">
<rect y="0.259766" width="36" height="36" rx="18" fill="#00B512"/>
<path fill-rule="evenodd" clip-rule="evenodd" d="M18 10.7599C13.8579 10.7599 10.5 14.1178 10.5 18.2599C10.5 22.4021 13.8579 25.7599 18 25.7599C22.1421 25.7599 25.5 22.4021 25.5 18.2599C25.5 14.1178 22.1421 10.7599 18 10.7599ZM8.83334 18.2599C8.83334 13.1973 12.9374 9.09326 18 9.09326C23.0626 9.09326 27.1667 13.1973 27.1667 18.2599C27.1667 23.3225 23.0626 27.4266 18 27.4266C12.9374 27.4266 8.83334 23.3225 8.83334 18.2599Z" fill="#F2F2F2"/>
<path fill-rule="evenodd" clip-rule="evenodd" d="M21.0893 16.004C21.4147 16.3294 21.4147 16.8571 21.0893 17.1825L17.7559 20.5158C17.4305 20.8413 16.9029 20.8413 16.5774 20.5158L14.9108 18.8492C14.5853 18.5237 14.5853 17.9961 14.9108 17.6707C15.2362 17.3452 15.7638 17.3452 16.0893 17.6707L17.1667 18.7481L19.9108 16.004C20.2362 15.6786 20.7638 15.6786 21.0893 16.004Z" fill="#F2F2F2"/>
</svg>
