<svg width="22" height="22" viewBox="0 0 22 22" fill="none" xmlns="http://www.w3.org/2000/svg">
<path fill-rule="evenodd" clip-rule="evenodd" d="M16.6629 0.922881C17.2483 0.33752 18.0422 0.00866699 18.87 0.00866699C19.6978 0.00866699 20.4918 0.33752 21.0771 0.922881C21.6625 1.50824 21.9913 2.30216 21.9913 3.12999C21.9913 3.95781 21.6625 4.75173 21.0771 5.33709L17.4142 8.99999L18.2992 9.88498C18.858 10.4471 19.1716 11.2074 19.1716 12C19.1716 12.7925 18.858 13.5529 18.2992 14.115L18.2971 14.1171L16.7071 15.7071C16.3166 16.0976 15.6834 16.0976 15.2929 15.7071L6.2929 6.70709C5.90238 6.31657 5.90238 5.68341 6.2929 5.29288L7.88501 3.70078C8.4471 3.14202 9.20745 2.8284 10 2.8284C10.7926 2.8284 11.5529 3.14203 12.115 3.70078L12.1171 3.70288L13 4.58577L16.6629 0.922881ZM18.87 2.00867C18.5726 2.00867 18.2874 2.12681 18.0771 2.33709L13.7071 6.70709C13.3166 7.09762 12.6834 7.09762 12.2929 6.70709L10.705 5.11919L10.7041 5.11831C10.5168 4.93261 10.2638 4.8284 10 4.8284C9.73625 4.8284 9.48318 4.93261 9.29591 5.11831L9.29501 5.11919L8.41422 5.99999L16 13.5858L16.8808 12.705L16.8816 12.7042C17.0674 12.5169 17.1716 12.2638 17.1716 12C17.1716 11.7362 17.0674 11.4831 16.8816 11.2958L16.8808 11.295L15.2929 9.70709C15.1054 9.51956 15 9.2652 15 8.99999C15 8.73477 15.1054 8.48042 15.2929 8.29288L19.6629 3.92288C19.8732 3.71259 19.9913 3.42738 19.9913 3.12999C19.9913 2.83259 19.8732 2.54738 19.6629 2.33709C19.4526 2.12681 19.1674 2.00867 18.87 2.00867Z" fill="black"/>
<path fill-rule="evenodd" clip-rule="evenodd" d="M8.55471 6.16794C9.01424 6.47429 9.13841 7.09516 8.83206 7.55469C7.75375 9.17216 6.62983 10.1781 5.32223 10.8319C4.53147 11.2273 3.69732 11.4805 2.82084 11.6752L9.23425 19.692C10.0467 19.1316 11.0831 18.222 12.0101 17.2023C12.6071 16.5456 13.1254 15.8792 13.488 15.2794C13.871 14.646 14 14.2169 14 14C14 13.4477 14.4477 13 15 13C15.5523 13 16 13.4477 16 14C16 14.7831 15.629 15.604 15.1995 16.3143C14.7496 17.0583 14.1429 17.8294 13.49 18.5477C12.2045 19.9617 10.607 21.3145 9.44722 21.8944C9.02547 22.1053 8.51371 21.9929 8.21914 21.6247L0.219143 11.6247C-0.00247703 11.3477 -0.0607335 10.974 0.0660497 10.6426C0.192833 10.3113 0.485675 10.0719 0.835613 10.0136C2.33986 9.76289 3.45245 9.53073 4.4278 9.04306C5.37019 8.57187 6.24628 7.82782 7.16796 6.44529C7.47431 5.98576 8.09518 5.86158 8.55471 6.16794Z" fill="black"/>
<path fill-rule="evenodd" clip-rule="evenodd" d="M2.52987 13.7575C2.66382 13.2217 3.20675 12.8959 3.74255 13.0298L13.7425 15.5298C14.2783 15.6638 14.6041 16.2067 14.4702 16.7425C14.3362 17.2783 13.7933 17.6041 13.2575 17.4701L3.25748 14.9701C2.72168 14.8362 2.39592 14.2932 2.52987 13.7575Z" fill="black"/>
</svg>
