<svg width="20" height="19" viewBox="0 0 20 19" fill="none" xmlns="http://www.w3.org/2000/svg">
<path fill-rule="evenodd" clip-rule="evenodd" d="M8.96275 0.318108C9.28838 0.169617 9.6421 0.0927734 10 0.0927734C10.3578 0.0927734 10.7114 0.169562 11.0369 0.317947L18.1915 3.57458C18.485 3.7052 18.7345 3.91785 18.9099 4.187C19.0865 4.45776 19.1805 4.77401 19.1805 5.09724C19.1805 5.42046 19.0865 5.73671 18.9099 6.00748C18.7344 6.27669 18.4848 6.48938 18.1913 6.61999L11.0458 9.86792C11.0457 9.86796 11.0459 9.86788 11.0458 9.86792C10.7202 10.0164 10.3662 10.0934 10.0083 10.0934C9.65034 10.0934 9.29653 10.0165 8.97083 9.86792L1.82497 6.61147C1.53159 6.48085 1.28216 6.26823 1.10673 5.99914C0.930199 5.72838 0.836212 5.41213 0.836212 5.0889C0.836212 4.76568 0.930199 4.44943 1.10673 4.17866C1.2822 3.90951 1.53172 3.69685 1.82519 3.56624L8.96275 0.318108C8.96283 0.318071 8.96266 0.318145 8.96275 0.318108ZM10 1.75944C9.88067 1.75944 9.76274 1.78507 9.65417 1.83459L2.50295 5.08894L2.51226 5.09304L9.66224 8.35143C9.77081 8.40095 9.88901 8.4267 10.0083 8.4267C10.1277 8.4267 10.2456 8.40108 10.3542 8.35155L17.5137 5.09721L17.5047 5.09325L10.3464 1.83486C10.2379 1.78534 10.1193 1.75944 10 1.75944Z" fill="#3d88ed"/>
<path fill-rule="evenodd" clip-rule="evenodd" d="M0.907774 13.6238C1.09791 13.2047 1.59182 13.019 2.01094 13.2092L9.65417 16.6765C9.76273 16.7261 9.88067 16.7517 10 16.7517C10.1193 16.7517 10.2373 16.7261 10.3458 16.6766L10.3474 16.6758L17.9891 13.2092C18.4082 13.019 18.9021 13.2047 19.0922 13.6238C19.2824 14.0429 19.0967 14.5368 18.6776 14.727L11.0375 18.1929C11.0372 18.193 11.0369 18.1932 11.0367 18.1933C10.7112 18.3416 10.3577 18.4184 10 18.4184C9.64232 18.4184 9.28881 18.3416 8.96334 18.1933C8.96306 18.1932 8.96278 18.193 8.9625 18.1929L1.32239 14.727C0.903268 14.5368 0.717636 14.0429 0.907774 13.6238Z" fill="#3d88ed"/>
<path fill-rule="evenodd" clip-rule="evenodd" d="M0.907774 9.45713C1.09791 9.038 1.59182 8.85237 2.01094 9.04251L9.65417 12.5099C9.76273 12.5594 9.88067 12.585 10 12.585C10.1193 12.585 10.2373 12.5594 10.3458 12.5099L10.3474 12.5092L17.9891 9.04251C18.4082 8.85237 18.9021 9.038 19.0922 9.45713C19.2824 9.87626 19.0967 10.3702 18.6776 10.5603L11.0375 14.0263C11.0372 14.0264 11.0369 14.0265 11.0367 14.0266C10.7112 14.175 10.3577 14.2517 10 14.2517C9.64232 14.2517 9.28881 14.175 8.96334 14.0266C8.96306 14.0265 8.96278 14.0264 8.9625 14.0263L1.32239 10.5603C0.903268 10.3702 0.717636 9.87626 0.907774 9.45713Z" fill="#3d88ed"/>
</svg>
