<svg width="20" height="19" viewBox="0 0 20 19" fill="none" xmlns="http://www.w3.org/2000/svg">
<path fill-rule="evenodd" clip-rule="evenodd" d="M16.5496 1.85809C16.3498 1.78027 16.1355 1.74458 15.9207 1.75344C15.7059 1.76231 15.4955 1.81551 15.303 1.90947C15.1104 2.00341 14.9402 2.13594 14.8028 2.29828C14.7879 2.3159 14.7722 2.3329 14.7559 2.34923L3.66241 13.4427L2.85435 16.4056L5.81723 15.5976L16.9107 4.50405C16.9298 4.48498 16.9498 4.46684 16.9706 4.44971C17.1354 4.31417 17.2696 4.14636 17.3648 3.95722C17.4601 3.76809 17.5145 3.5616 17.5248 3.35087C17.5352 3.14015 17.5012 2.92949 17.4249 2.73225C17.3486 2.535 17.2316 2.35525 17.081 2.20466C16.9304 2.05405 16.7495 1.93591 16.5496 1.85809ZM15.852 0.0881913C16.2964 0.0698537 16.7399 0.143642 17.1543 0.304998C17.5688 0.46636 17.9452 0.711847 18.2595 1.02615C18.5738 1.34046 18.8191 1.71672 18.9793 2.13109C19.1396 2.54548 19.2112 2.98868 19.1895 3.43237C19.1678 3.87605 19.0532 4.31016 18.8533 4.707C18.66 5.09087 18.391 5.43155 18.0628 5.70902L6.83925 16.9326C6.73671 17.0351 6.60918 17.1091 6.46926 17.1473L1.88593 18.3973C1.59742 18.476 1.28887 18.394 1.07741 18.1826C0.865952 17.9711 0.784011 17.6625 0.862696 17.374L2.1127 12.7907C2.15085 12.6508 2.22486 12.5233 2.32741 12.4207L13.5548 1.19337C13.8375 0.867043 14.1836 0.601176 14.5721 0.411612C14.9717 0.216605 15.4076 0.106529 15.852 0.0881913Z" fill="#4C4C4C"/>
</svg>
