<svg width="24" height="24" viewBox="0 0 24 24" fill="none" xmlns="http://www.w3.org/2000/svg">
<g clip-path="url(#clip0_7201_35862)">
<mask id="mask0_7201_35862" style="mask-type:luminance" maskUnits="userSpaceOnUse" x="0" y="0" width="24" height="24">
<path d="M12 24C18.6274 24 24 18.6274 24 12C24 5.37258 18.6274 0 12 0C5.37258 0 0 5.37258 0 12C0 18.6274 5.37258 24 12 24Z" fill="white"/>
</mask>
<g mask="url(#mask0_7201_35862)">
<path d="M0 0H24V24H0V0Z" fill="#EEEEEE"/>
<path d="M16.4062 15.7031L17.5312 14.5781L18.2812 15.3281L17.1562 16.4062L16.4062 15.7031ZM14.5781 17.5312L15.7031 16.4062L16.4062 17.1562L15.3281 18.2812L14.5781 17.5312ZM18.6562 17.9062L19.7344 16.7812L20.4844 17.5312L19.3594 18.6562L18.6562 17.9062ZM16.7812 19.7344L17.9062 18.6562L18.6562 19.3594L17.5312 20.4844L16.7812 19.7344ZM17.5312 16.7812L18.6562 15.7031L19.3594 16.4062L18.2812 17.5312L17.5312 16.7812ZM15.7031 18.6562L16.7812 17.5312L17.5312 18.2812L16.4062 19.3594L15.7031 18.6562ZM18.6562 8.29688L15.7031 5.34375L16.4062 4.64062L19.4062 7.59375L18.6562 8.29688ZM15.7031 7.59375L14.5781 6.46875L15.3281 5.71875L16.4062 6.84375L15.7031 7.59375ZM17.5312 9.42188L16.4062 8.29688L17.1562 7.59375L18.2812 8.67188L17.5312 9.42188ZM17.9062 5.34375L16.7812 4.26562L17.5312 3.51562L18.6562 4.64062L17.9062 5.34375ZM19.7344 7.21875L18.6562 6.09375L19.3594 5.34375L20.4844 6.46875L19.7344 7.21875ZM4.26562 16.7812L7.21875 19.7344L6.46875 20.4844L3.51562 17.5312L4.26562 16.7812ZM7.21875 17.5312L8.29688 18.6562L7.59375 19.3594L6.46875 18.2812L7.21875 17.5312ZM5.34375 15.7031L6.46875 16.7812L5.71875 17.5312L4.64062 16.4062L5.34375 15.7031ZM6.46875 14.5781L9.42188 17.5312L8.67188 18.2812L5.71875 15.3281L6.46875 14.5781ZM7.21875 4.26562L4.26562 7.21875L3.51562 6.46875L6.46875 3.51562L7.21875 4.26562ZM8.29688 5.34375L5.34375 8.29688L4.64062 7.54688L7.59375 4.59375L8.29688 5.34375ZM9.42188 6.46875L6.46875 9.42188L5.71875 8.67188L8.67188 5.71875L9.42188 6.46875Z" fill="#333333"/>
<path d="M14.9531 14.9531L9.04688 9.04683C9.43468 8.65902 9.89508 8.3514 10.4018 8.14151C10.9085 7.93163 11.4516 7.82361 12 7.82361C12.5484 7.82361 13.0915 7.93163 13.5982 8.14151C14.1049 8.3514 14.5653 8.65902 14.9531 9.04683C15.3409 9.43464 15.6486 9.89504 15.8584 10.4017C16.0683 10.9084 16.1763 11.4515 16.1763 12C16.1763 12.5484 16.0683 13.0915 15.8584 13.5982C15.6486 14.1049 15.3409 14.5653 14.9531 14.9531Z" fill="#D80027"/>
<path d="M14.9532 14.9531C14.5654 15.3409 14.105 15.6486 13.5983 15.8584C13.0916 16.0683 12.5485 16.1763 12.0001 16.1763C11.4516 16.1763 10.9086 16.0683 10.4019 15.8584C9.89516 15.6486 9.43476 15.3409 9.04696 14.9531C8.65915 14.5653 8.35152 14.1049 8.14164 13.5982C7.93176 13.0915 7.82373 12.5484 7.82373 12C7.82373 11.4516 7.93176 10.9085 8.14164 10.4018C8.35152 9.89508 8.65915 9.43468 9.04696 9.04688L14.9532 14.9531Z" fill="#0052B4"/>
<path d="M10.5234 12.6094C11.6755 12.6094 12.6094 11.6755 12.6094 10.5234C12.6094 9.37141 11.6755 8.4375 10.5234 8.4375C9.37141 8.4375 8.4375 9.37141 8.4375 10.5234C8.4375 11.6755 9.37141 12.6094 10.5234 12.6094Z" fill="#D80027"/>
<path d="M13.4766 15.5625C14.6286 15.5625 15.5625 14.6286 15.5625 13.4766C15.5625 12.3245 14.6286 11.3906 13.4766 11.3906C12.3245 11.3906 11.3906 12.3245 11.3906 13.4766C11.3906 14.6286 12.3245 15.5625 13.4766 15.5625Z" fill="#0052B4"/>
</g>
</g>
<defs>
<clipPath id="clip0_7201_35862">
<rect width="24" height="24" fill="white"/>
</clipPath>
</defs>
</svg>
