<svg width="16" height="23" viewBox="0 0 16 23" fill="none" xmlns="http://www.w3.org/2000/svg">
<path fill-rule="evenodd" clip-rule="evenodd" d="M5.17157 1.43134C5.92172 0.681193 6.93913 0.259766 8 0.259766C9.06087 0.259766 10.0783 0.681193 10.8284 1.43134C11.5786 2.18148 12 3.1989 12 4.25977V11.2598C12 12.3206 11.5786 13.338 10.8284 14.0882C10.0783 14.8383 9.06087 15.2598 8 15.2598C6.93913 15.2598 5.92172 14.8383 5.17157 14.0882C4.42143 13.338 4 12.3206 4 11.2598V4.25977C4 3.1989 4.42143 2.18148 5.17157 1.43134ZM8 2.25977C7.46957 2.25977 6.96086 2.47048 6.58579 2.84555C6.21071 3.22062 6 3.72933 6 4.25977V11.2598C6 11.7902 6.21071 12.2989 6.58579 12.674C6.96086 13.0491 7.46957 13.2598 8 13.2598C8.53043 13.2598 9.03914 13.0491 9.41421 12.674C9.78929 12.2989 10 11.7902 10 11.2598V4.25977C10 3.72933 9.78929 3.22062 9.41421 2.84555C9.03914 2.47048 8.53043 2.25977 8 2.25977Z" fill="#3D88ED"/>
<path fill-rule="evenodd" clip-rule="evenodd" d="M1 8.25977C1.55228 8.25977 2 8.70748 2 9.25977V11.2598C2 12.8511 2.63214 14.3772 3.75736 15.5024C4.88258 16.6276 6.4087 17.2598 8 17.2598C9.5913 17.2598 11.1174 16.6276 12.2426 15.5024C13.3679 14.3772 14 12.8511 14 11.2598V9.25977C14 8.70748 14.4477 8.25977 15 8.25977C15.5523 8.25977 16 8.70748 16 9.25977V11.2598C16 13.3815 15.1571 15.4163 13.6569 16.9166C12.1566 18.4169 10.1217 19.2598 8 19.2598C5.87827 19.2598 3.84344 18.4169 2.34315 16.9166C0.842855 15.4163 5.96046e-08 13.3815 0 11.2598V9.25977C0 8.70748 0.447715 8.25977 1 8.25977Z" fill="#3D88ED"/>
<path fill-rule="evenodd" clip-rule="evenodd" d="M8 17.2598C8.55228 17.2598 9 17.7075 9 18.2598V21.2598C9 21.812 8.55228 22.2598 8 22.2598C7.44772 22.2598 7 21.812 7 21.2598V18.2598C7 17.7075 7.44772 17.2598 8 17.2598Z" fill="#3D88ED"/>
</svg>
