<svg width="20" height="19" viewBox="0 0 20 19" fill="none" xmlns="http://www.w3.org/2000/svg">
<path fill-rule="evenodd" clip-rule="evenodd" d="M1.66666 3.42659C2.1269 3.42659 2.49999 3.79969 2.49999 4.25993V15.9266C2.49999 16.1476 2.58779 16.3596 2.74407 16.5159C2.90035 16.6721 3.11231 16.7599 3.33333 16.7599H15C15.4602 16.7599 15.8333 17.133 15.8333 17.5933C15.8333 18.0535 15.4602 18.4266 15 18.4266H3.33333C2.67029 18.4266 2.0344 18.1632 1.56556 17.6944C1.09672 17.2255 0.833328 16.5896 0.833328 15.9266V4.25993C0.833328 3.79969 1.20642 3.42659 1.66666 3.42659Z" fill="#3d88ed"/>
<path fill-rule="evenodd" clip-rule="evenodd" d="M13.8241 8.42396C14.357 7.89114 15.0797 7.59181 15.8333 7.59181C16.5869 7.59181 17.3096 7.89114 17.8425 8.42396L18.9226 9.50401C19.248 9.82944 19.248 10.3571 18.9226 10.6825C18.5971 11.008 18.0695 11.008 17.7441 10.6825L16.6641 9.60256C16.4438 9.38224 16.1449 9.25847 15.8333 9.25847C15.5217 9.25847 15.2229 9.38224 15.0025 9.60256L9.75592 14.8492C9.43048 15.1746 8.90284 15.1746 8.57741 14.8492C8.25197 14.5237 8.25197 13.9961 8.57741 13.6707L13.8241 8.42396Z" fill="#3d88ed"/>
<path fill-rule="evenodd" clip-rule="evenodd" d="M9.99999 5.09326C9.53976 5.09326 9.16666 5.46636 9.16666 5.92659C9.16666 6.38683 9.53976 6.75993 9.99999 6.75993C10.4602 6.75993 10.8333 6.38683 10.8333 5.92659C10.8333 5.46636 10.4602 5.09326 9.99999 5.09326ZM7.49999 5.92659C7.49999 4.54588 8.61928 3.42659 9.99999 3.42659C11.3807 3.42659 12.5 4.54588 12.5 5.92659C12.5 7.30731 11.3807 8.42659 9.99999 8.42659C8.61928 8.42659 7.49999 7.30731 7.49999 5.92659Z" fill="#3d88ed"/>
<path fill-rule="evenodd" clip-rule="evenodd" d="M6.66666 1.75993C6.20642 1.75993 5.83333 2.13302 5.83333 2.59326V12.5933C5.83333 13.0535 6.20642 13.4266 6.66666 13.4266H16.6667C17.1269 13.4266 17.5 13.0535 17.5 12.5933V2.59326C17.5 2.13302 17.1269 1.75993 16.6667 1.75993H6.66666ZM4.16666 2.59326C4.16666 1.21255 5.28595 0.0932617 6.66666 0.0932617H16.6667C18.0474 0.0932617 19.1667 1.21255 19.1667 2.59326V12.5933C19.1667 13.974 18.0474 15.0933 16.6667 15.0933H6.66666C5.28595 15.0933 4.16666 13.974 4.16666 12.5933V2.59326Z" fill="#3d88ed"/>
</svg>
