<svg width="18" height="20" viewBox="0 0 18 20" fill="none" xmlns="http://www.w3.org/2000/svg">
<path fill-rule="evenodd" clip-rule="evenodd" d="M5.70711 0.292893C6.09763 0.683417 6.09763 1.31658 5.70711 1.70711L2.41421 5L5.70711 8.29289C6.09763 8.68342 6.09763 9.31658 5.70711 9.70711C5.31658 10.0976 4.68342 10.0976 4.29289 9.70711L0.292893 5.70711C-0.0976311 5.31658 -0.0976311 4.68342 0.292893 4.29289L4.29289 0.292893C4.68342 -0.0976311 5.31658 -0.0976311 5.70711 0.292893Z" fill="#4d4d4d"/>
<path fill-rule="evenodd" clip-rule="evenodd" d="M1.49012e-08 5C1.49012e-08 4.44772 0.447715 4 1 4H17C17.5523 4 18 4.44772 18 5C18 5.55228 17.5523 6 17 6H1C0.447715 6 1.49012e-08 5.55228 1.49012e-08 5Z" fill="#4d4d4d"/>
<path fill-rule="evenodd" clip-rule="evenodd" d="M12.2929 10.2929C12.6834 9.90237 13.3166 9.90237 13.7071 10.2929L17.7071 14.2929C18.0976 14.6834 18.0976 15.3166 17.7071 15.7071L13.7071 19.7071C13.3166 20.0976 12.6834 20.0976 12.2929 19.7071C11.9024 19.3166 11.9024 18.6834 12.2929 18.2929L15.5858 15L12.2929 11.7071C11.9024 11.3166 11.9024 10.6834 12.2929 10.2929Z" fill="#4d4d4d"/>
<path fill-rule="evenodd" clip-rule="evenodd" d="M1.49012e-08 15C1.49012e-08 14.4477 0.447715 14 1 14H17C17.5523 14 18 14.4477 18 15C18 15.5523 17.5523 16 17 16H1C0.447715 16 1.49012e-08 15.5523 1.49012e-08 15Z" fill="#4d4d4d"/>
</svg>
