<svg width="24" height="24" viewBox="0 0 24 24" fill="none" xmlns="http://www.w3.org/2000/svg">
<g clip-path="url(#clip0_7201_36245)">
<mask id="mask0_7201_36245" style="mask-type:luminance" maskUnits="userSpaceOnUse" x="0" y="0" width="24" height="24">
<path d="M12 24C18.6274 24 24 18.6274 24 12C24 5.37258 18.6274 0 12 0C5.37258 0 0 5.37258 0 12C0 18.6274 5.37258 24 12 24Z" fill="white"/>
</mask>
<g mask="url(#mask0_7201_36245)">
<path d="M0 0H24V24H0V0Z" fill="#D80027"/>
<path d="M12 6.26245L13.2938 10.2468H17.4844L14.0953 12.7031L15.3891 16.6875L12 14.2265L8.61094 16.6921L9.90469 12.7078L6.51562 10.2421H10.7062L12 6.26245Z" fill="#FFDA44"/>
</g>
</g>
<defs>
<clipPath id="clip0_7201_36245">
<rect width="24" height="24" fill="white"/>
</clipPath>
</defs>
</svg>
