<svg width="20" height="20" viewBox="0 0 20 20" fill="none" xmlns="http://www.w3.org/2000/svg">
 <path fill-rule="evenodd" clip-rule="evenodd" d="M10 0C10.4319 0 10.815 0.277277 10.9499 0.68755L12.8619 6.50055C12.9109 6.6493 12.994 6.7845 13.1048 6.89523C13.2155 7.00596 13.3507 7.08914 13.4994 7.13806L19.3125 9.05007C19.7227 9.18501 20 9.5681 20 10C20 10.4319 19.7227 10.815 19.3125 10.9499L13.4995 12.8619C13.3507 12.9109 13.2155 12.994 13.1048 13.1048C12.994 13.2155 12.9109 13.3507 12.8619 13.4994L10.9499 19.3125C10.815 19.7227 10.4319 20 10 20C9.5681 20 9.18501 19.7227 9.05007 19.3125L7.13807 13.4995C7.08914 13.3507 7.00596 13.2155 6.89523 13.1048C6.7845 12.994 6.64931 12.9109 6.50056 12.8619L0.68755 10.9499C0.277277 10.815 0 10.4319 0 10C0 9.5681 0.277277 9.18501 0.68755 9.05007L6.50055 7.13807C6.6493 7.08914 6.7845 7.00596 6.89523 6.89523C7.00596 6.7845 7.08914 6.64931 7.13806 6.50056L9.05007 0.68755C9.18501 0.277277 9.5681 0 10 0ZM9.03794 7.12544C9.03794 7.12543 9.03794 7.12544 9.03794 7.12544C8.89116 7.5717 8.64163 7.97726 8.30944 8.30944C7.97726 8.64163 7.57171 8.89116 7.12545 9.03793C7.12545 9.03793 7.12545 9.03793 7.12545 9.03793L4.20051 10L7.12544 10.9621C7.12543 10.9621 7.12544 10.9621 7.12544 10.9621C7.5717 11.1088 7.97726 11.3584 8.30944 11.6906C8.64163 12.0227 8.89116 12.4283 9.03793 12.8745C9.03793 12.8745 9.03793 12.8746 9.03793 12.8745L10 15.7995L10.9621 12.8746C10.9621 12.8746 10.9621 12.8746 10.9621 12.8746C11.1088 12.4283 11.3584 12.0227 11.6906 11.6906C12.0227 11.3584 12.4283 11.1088 12.8745 10.9621C12.8745 10.9621 12.8746 10.9621 12.8745 10.9621L15.7995 10L12.8746 9.03794C12.8746 9.03794 12.8746 9.03794 12.8746 9.03794C12.4283 8.89116 12.0227 8.64163 11.6906 8.30944C11.3584 7.97726 11.1088 7.57171 10.9621 7.12545C10.9621 7.12545 10.9621 7.12545 10.9621 7.12545L10 4.20051L9.03794 7.12544Z" fill="#3d88ed"/>
 <path fill-rule="evenodd" clip-rule="evenodd" d="M3 0C3.55228 0 4 0.447715 4 1V5C4 5.55228 3.55228 6 3 6C2.44772 6 2 5.55228 2 5V1C2 0.447715 2.44772 0 3 0Z" fill="#3d88ed"/>
 <path fill-rule="evenodd" clip-rule="evenodd" d="M17 14C17.5523 14 18 14.4477 18 15V19C18 19.5523 17.5523 20 17 20C16.4477 20 16 19.5523 16 19V15C16 14.4477 16.4477 14 17 14Z" fill="#3d88ed"/>
 <path fill-rule="evenodd" clip-rule="evenodd" d="M0 3C0 2.44772 0.447715 2 1 2H5C5.55228 2 6 2.44772 6 3C6 3.55228 5.55228 4 5 4H1C0.447715 4 0 3.55228 0 3Z" fill="#3d88ed"/>
 <path fill-rule="evenodd" clip-rule="evenodd" d="M14 17C14 16.4477 14.4477 16 15 16H19C19.5523 16 20 16.4477 20 17C20 17.5523 19.5523 18 19 18H15C14.4477 18 14 17.5523 14 17Z" fill="#3d88ed"/>
</svg>