<svg width="20" height="14" viewBox="0 0 20 14" fill="none" xmlns="http://www.w3.org/2000/svg">
<path fill-rule="evenodd" clip-rule="evenodd" d="M2.59321 7.25944C2.66156 7.39049 2.75181 7.55529 2.86453 7.74466C3.16786 8.25426 3.62871 8.93297 4.25651 9.60906C5.5126 10.9618 7.39013 12.2594 10 12.2594C12.6099 12.2594 14.4874 10.9618 15.7435 9.60906C16.3713 8.93297 16.8322 8.25426 17.1355 7.74466C17.2482 7.55529 17.3385 7.39049 17.4068 7.25944C17.3385 7.12839 17.2482 6.96359 17.1355 6.77422C16.8322 6.26462 16.3713 5.58591 15.7435 4.90982C14.4874 3.5571 12.6099 2.25944 10 2.25944C7.39013 2.25944 5.5126 3.5571 4.25651 4.90982C3.62871 5.58591 3.16786 6.26462 2.86453 6.77422C2.75181 6.96359 2.66156 7.12839 2.59321 7.25944ZM18.3333 7.25944C19.0993 6.93117 19.0992 6.93084 19.099 6.93047L19.0977 6.92757L19.0953 6.92183L19.0874 6.90409C19.081 6.88953 19.0719 6.86954 19.0604 6.84449C19.0372 6.79439 19.0038 6.72396 18.9599 6.63611C18.8721 6.46054 18.742 6.21461 18.5677 5.92175C18.2199 5.33759 17.6912 4.55797 16.9648 3.77573C15.5126 2.21178 13.2235 0.592773 10 0.592773C6.77656 0.592773 4.48743 2.21178 3.03519 3.77573C2.30882 4.55797 1.78008 5.33759 1.43237 5.92175C1.25805 6.21461 1.12793 6.46054 1.04014 6.63611C0.996214 6.72396 0.962793 6.79439 0.939653 6.84449C0.928079 6.86954 0.919068 6.88953 0.912592 6.90409L0.904771 6.92183L0.902278 6.92757L0.901384 6.92964L0.901026 6.93047C0.900871 6.93084 0.900725 6.93117 1.66668 7.25944L0.901026 6.93047C0.811187 7.1401 0.810886 7.37808 0.900725 7.58771L1.66668 7.25944C0.900725 7.58771 0.90057 7.58735 0.900725 7.58771L0.901384 7.58924L0.902278 7.59131L0.904771 7.59705L0.912592 7.61479C0.919068 7.62935 0.928079 7.64934 0.939653 7.67439C0.962793 7.72449 0.996214 7.79492 1.04014 7.88277C1.12793 8.05834 1.25805 8.30427 1.43237 8.59713C1.78008 9.18129 2.30882 9.96091 3.03519 10.7431C4.48743 12.3071 6.77656 13.9261 10 13.9261C13.2235 13.9261 15.5126 12.3071 16.9648 10.7431C17.6912 9.96091 18.2199 9.18129 18.5677 8.59713C18.742 8.30427 18.8721 8.05834 18.9599 7.88277C19.0038 7.79492 19.0372 7.72449 19.0604 7.67439C19.0719 7.64934 19.081 7.62935 19.0874 7.61479L19.0953 7.59705L19.0977 7.59131L19.099 7.58841C19.0992 7.58804 19.0993 7.58771 18.3333 7.25944ZM18.3333 7.25944L19.099 7.58841C19.1888 7.37878 19.1888 7.1401 19.099 6.93047L18.3333 7.25944Z" fill="#4C4C4C"/>
<path fill-rule="evenodd" clip-rule="evenodd" d="M10 5.59277C9.07954 5.59277 8.33335 6.33897 8.33335 7.25944C8.33335 8.17991 9.07954 8.92611 10 8.92611C10.9205 8.92611 11.6667 8.17991 11.6667 7.25944C11.6667 6.33897 10.9205 5.59277 10 5.59277ZM6.66668 7.25944C6.66668 5.41849 8.15906 3.92611 10 3.92611C11.841 3.92611 13.3333 5.41849 13.3333 7.25944C13.3333 9.10039 11.841 10.5928 10 10.5928C8.15906 10.5928 6.66668 9.10039 6.66668 7.25944Z" fill="#4C4C4C"/>
</svg>
