<svg width="15" height="18" viewBox="0 0 15 18" fill="none" xmlns="http://www.w3.org/2000/svg">
<path fill-rule="evenodd" clip-rule="evenodd" d="M7.5 2.59342C5.65905 2.59342 4.16667 4.08581 4.16667 5.92676C4.16667 7.76771 5.65905 9.26009 7.5 9.26009C9.34095 9.26009 10.8333 7.76771 10.8333 5.92676C10.8333 4.08581 9.34095 2.59342 7.5 2.59342ZM2.5 5.92676C2.5 3.16533 4.73858 0.926758 7.5 0.926758C10.2614 0.926758 12.5 3.16533 12.5 5.92676C12.5 8.68818 10.2614 10.9268 7.5 10.9268C4.73858 10.9268 2.5 8.68818 2.5 5.92676Z" fill="#4C4C4C"/>
<path fill-rule="evenodd" clip-rule="evenodd" d="M2.1967 11.4568C3.60322 10.0503 5.51088 9.26009 7.5 9.26009C9.48912 9.26009 11.3968 10.0503 12.8033 11.4568C14.2098 12.8633 15 14.771 15 16.7601C15 17.2203 14.6269 17.5934 14.1667 17.5934C13.7064 17.5934 13.3333 17.2203 13.3333 16.7601C13.3333 15.213 12.7188 13.7293 11.6248 12.6353C10.5308 11.5413 9.0471 10.9268 7.5 10.9268C5.9529 10.9268 4.46917 11.5413 3.37521 12.6353C2.28125 13.7293 1.66667 15.213 1.66667 16.7601C1.66667 17.2203 1.29357 17.5934 0.833333 17.5934C0.373096 17.5934 0 17.2203 0 16.7601C0 14.771 0.790176 12.8633 2.1967 11.4568Z" fill="#4C4C4C"/>
</svg>
