<svg width="64" height="37" viewBox="0 0 64 37" fill="none" xmlns="http://www.w3.org/2000/svg">
<rect y="0.477295" width="64" height="36" rx="12" fill="#F2F2F2"/>
<path fill-rule="evenodd" clip-rule="evenodd" d="M20 13.144C18.5272 13.144 17.3333 14.3379 17.3333 15.8107C17.3333 17.2834 18.5272 18.4773 20 18.4773C21.4728 18.4773 22.6667 17.2834 22.6667 15.8107C22.6667 14.3379 21.4728 13.144 20 13.144ZM16 15.8107C16 13.6015 17.7909 11.8107 20 11.8107C22.2091 11.8107 24 13.6015 24 15.8107C24 18.0198 22.2091 19.8107 20 19.8107C17.7909 19.8107 16 18.0198 16 15.8107Z" fill="#4C4C4C"/>
<path fill-rule="evenodd" clip-rule="evenodd" d="M15.7574 20.2347C16.8826 19.1095 18.4087 18.4773 20 18.4773C21.5913 18.4773 23.1174 19.1095 24.2426 20.2347C25.3679 21.3599 26 22.886 26 24.4773C26 24.8455 25.7015 25.144 25.3333 25.144C24.9651 25.144 24.6667 24.8455 24.6667 24.4773C24.6667 23.2397 24.175 22.0527 23.2998 21.1775C22.4247 20.3023 21.2377 19.8107 20 19.8107C18.7623 19.8107 17.5753 20.3023 16.7002 21.1775C15.825 22.0527 15.3333 23.2397 15.3333 24.4773C15.3333 24.8455 15.0349 25.144 14.6667 25.144C14.2985 25.144 14 24.8455 14 24.4773C14 22.886 14.6321 21.3599 15.7574 20.2347Z" fill="#4C4C4C"/>
<path fill-rule="evenodd" clip-rule="evenodd" d="M39.5286 16.0059C39.789 15.7456 40.2111 15.7456 40.4714 16.0059L44 19.5345L47.5286 16.0059C47.789 15.7456 48.2111 15.7456 48.4714 16.0059C48.7318 16.2663 48.7318 16.6884 48.4714 16.9487L44.4714 20.9487C44.2111 21.2091 43.789 21.2091 43.5286 20.9487L39.5286 16.9487C39.2683 16.6884 39.2683 16.2663 39.5286 16.0059Z" fill="#4C4C4C"/>
</svg>
